<svg width="33" height="14" viewBox="0 0 33 14" fill="none" xmlns="http://www.w3.org/2000/svg">
<path d="M10.9058 0.405278C11.0501 0.169927 11.3588 0.0959582 11.5942 0.240239L22.6226 7L11.5942 13.7598C11.3588 13.9041 11.0501 13.8302 10.9058 13.5947C10.7618 13.3594 10.8357 13.0515 11.0708 12.9072L20.7085 7L11.0708 1.09375C10.8355 0.949422 10.7615 0.640679 10.9058 0.405278Z" fill="black"/>
<path d="M21.2378 0.405278C21.3821 0.169927 21.6909 0.0959582 21.9263 0.240239L32.9546 7L21.9263 13.7598C21.6908 13.9041 21.3821 13.8302 21.2378 13.5947C21.0938 13.3594 21.1677 13.0515 21.4028 12.9072L31.0405 7L21.4028 1.09375C21.1675 0.949422 21.0935 0.640679 21.2378 0.405278Z" fill="black"/>
<path d="M0.573735 0.405278C0.718067 0.169927 1.02681 0.0959582 1.26221 0.240239L12.2905 7L1.26221 13.7598C1.02677 13.9041 0.718038 13.8302 0.573735 13.5947C0.429781 13.3594 0.503659 13.0515 0.738774 12.9072L10.3765 7L0.738774 1.09375C0.503424 0.949422 0.429454 0.640679 0.573735 0.405278Z" fill="black"/>
</svg>
