<svg width="52" height="50" viewBox="0 0 52 50" fill="none" xmlns="http://www.w3.org/2000/svg">
<path d="M14.1299 0C15.416 0 16.459 1.04303 16.459 2.3291V5.2959L29.2246 1.00488C29.2417 0.999142 29.2591 0.994694 29.2764 0.990234C29.2793 0.989466 29.2823 0.989014 29.2852 0.988281C29.3156 0.98083 29.3462 0.975237 29.377 0.97168C29.3822 0.971035 29.3873 0.969283 29.3926 0.96875C29.4241 0.965782 29.4558 0.965759 29.4873 0.966797H29.498C29.5138 0.967419 29.5293 0.970075 29.5449 0.97168C29.5567 0.972977 29.5684 0.973737 29.5801 0.975586C29.7313 0.998358 29.8756 1.06594 29.9902 1.17676L37.1035 8.05273C37.7288 8.6572 38.082 9.48971 38.082 10.3594V19.6504C38.082 20.0646 37.7462 20.4003 37.332 20.4004C36.9178 20.4004 36.582 20.0646 36.582 19.6504V10.3594C36.582 9.89621 36.3935 9.45265 36.0605 9.13086L30.2188 3.48438V7.47656C30.2184 7.4906 30.2199 7.50463 30.2188 7.51855V12.9424C30.2184 12.9564 30.2199 12.9704 30.2188 12.9844V18.4082C30.2184 18.4222 30.2199 18.4363 30.2188 18.4502V22.4805H37.332C37.3386 22.4805 37.3451 22.4813 37.3516 22.4814H43.5107C44.8555 22.4815 45.9443 23.5703 45.9443 24.915V37.5127C46.0996 37.4981 46.2569 37.4902 46.416 37.4902H46.8447C49.5941 37.4902 51.823 39.7195 51.8232 42.4688V43.9229C51.8278 43.9564 51.8311 43.9906 51.8311 44.0254V47.6084C51.8309 48.6531 50.9839 49.4997 49.9395 49.5H29.4688C29.4671 49.5 29.4655 49.499 29.4639 49.499V49.5H1.8916C0.846909 49.4999 0.000121028 48.6531 0 47.6084V43.7461C0.000117063 40.3429 2.71814 37.5751 6.10156 37.4932V11.084C6.10156 9.70586 6.98189 8.48198 8.28809 8.04297L11.6406 6.91504V2.3291C11.6406 1.04272 12.6839 0 13.9707 0H14.1299ZM1.5 47.6084C1.50012 47.8247 1.67534 47.9999 1.8916 48H6.10156V44.7754H1.5V47.6084ZM12.6826 8.14746C12.6798 8.14866 12.6767 8.14922 12.6738 8.15039L8.76562 9.46484C8.07014 9.69865 7.60156 10.3502 7.60156 11.084V38.2207C7.60173 38.2272 7.60253 38.2337 7.60254 38.2402V48H11.6406V42.2979C11.6407 41.4613 12.1979 40.7269 13.0039 40.502L16.7227 39.4629C16.726 39.4622 16.7291 39.4606 16.7324 39.46L20.0723 38.5283C21.1116 38.238 22.1414 39.0198 22.1416 40.0986V48H28.7139V30.3662L18.8486 33.6826C18.4562 33.8145 18.0306 33.6032 17.8984 33.2109C17.7665 32.8184 17.9777 32.3928 18.3701 32.2607L28.7139 28.7832V24.9004L12.6299 30.3076C12.2374 30.4395 11.8118 30.2282 11.6797 29.8359C11.5477 29.4434 11.759 29.0178 12.1514 28.8857L28.7139 23.3184V19.4346L12.6299 24.8418C12.2375 24.9736 11.8119 24.7622 11.6797 24.3701C11.5478 23.9776 11.759 23.5521 12.1514 23.4199L28.7139 17.8525V13.9678L12.6299 19.375C12.2373 19.5069 11.8118 19.2958 11.6797 18.9033C11.5479 18.5108 11.759 18.0852 12.1514 17.9531L28.7139 12.3857V8.50195L12.6299 13.9092C12.2374 14.0411 11.8118 13.8299 11.6797 13.4375C11.5477 13.045 11.7589 12.6194 12.1514 12.4873L28.7139 6.91992V2.75977L12.6826 8.14746ZM20.4766 39.9736H20.4756L17.6328 40.7666V48H20.6416V40.0986C20.6414 40.0126 20.5593 39.9508 20.4766 39.9736ZM30.2188 48H41.4453V44.7754H30.2188V48ZM42.9453 48H49.9395C50.1557 47.9997 50.3309 47.8245 50.3311 47.6084V44.7754H42.9453V48ZM13.4072 41.9473C13.2498 41.9912 13.1407 42.1342 13.1406 42.2979V48H16.1328V41.1855L13.4072 41.9473ZM6.10156 38.9951C3.70421 39.0714 1.75497 40.9203 1.52344 43.2754H6.10156V38.9951ZM30.2188 43.2754H41.4375V42.4688C41.4377 40.42 42.6758 38.6604 44.4443 37.8965V24.915C44.4443 24.3987 44.0271 23.9815 43.5107 23.9814H30.2188V43.2754ZM46.416 38.9902C46.0674 38.9903 45.7306 39.0412 45.4131 39.1367C45.3959 39.142 45.3791 39.1483 45.3613 39.1523C43.956 39.5991 42.9377 40.9155 42.9375 42.4688V43.2754H50.3232V42.4688C50.323 40.5479 48.7657 38.9902 46.8447 38.9902H46.416ZM36.0156 37.4834C36.7177 37.4834 37.287 38.0528 37.2871 38.7549V40.583C37.2869 41.285 36.7176 41.8545 36.0156 41.8545H33.5527C32.8508 41.8545 32.2814 41.2849 32.2812 40.583V38.7549C32.2814 38.0529 32.8506 37.4834 33.5527 37.4834H36.0156ZM33.7812 40.3545H35.7871V38.9834H33.7812V40.3545ZM41 31.6494C41.7021 31.6494 42.2714 32.2188 42.2715 32.9209V34.749C42.2713 35.4511 41.7021 36.0205 41 36.0205H33.5527C32.8507 36.0205 32.2814 35.451 32.2812 34.749V32.9209C32.2813 32.2189 32.8507 31.6494 33.5527 31.6494H41ZM14.9717 33.4033C15.3642 33.2716 15.789 33.4835 15.9209 33.876C16.0528 34.2686 15.8418 34.6932 15.4492 34.8252L12.6299 35.7734C12.2373 35.9054 11.8118 35.6942 11.6797 35.3018C11.5477 34.9092 11.7589 34.4836 12.1514 34.3516L14.9717 33.4033ZM33.7812 34.5205H40.7715V33.1494H33.7812V34.5205ZM41 25.874C41.7021 25.874 42.2713 26.4435 42.2715 27.1455V28.9736C42.2715 29.6758 41.7021 30.2451 41 30.2451H33.5527C32.8506 30.2451 32.2812 29.6757 32.2812 28.9736V27.1455C32.2814 26.4436 32.8507 25.874 33.5527 25.874H41ZM33.7812 28.7451H40.7715V27.374H33.7812V28.7451ZM13.9707 1.5C13.5117 1.5 13.1406 1.87177 13.1406 2.3291V6.41113L14.959 5.7998V2.3291C14.959 1.87146 14.5875 1.5 14.1299 1.5H13.9707Z" fill="#242424"/>
</svg>
