<svg width="88" height="88" viewBox="0 0 88 88" fill="none" xmlns="http://www.w3.org/2000/svg">
<path d="M44 0C19.7369 0 0 19.7369 0 44C0 68.2631 19.7369 88 44 88C68.2631 88 88 68.2596 88 44C88 19.7404 68.2631 0 44 0ZM44 81.1836C23.4996 81.1836 6.81639 64.5038 6.81639 44C6.81639 23.4962 23.4996 6.81639 44 6.81639C64.5038 6.81639 81.1836 23.4962 81.1836 44C81.1836 64.5038 64.5004 81.1836 44 81.1836Z" fill="url(#paint0_linear_1022_427)"/>
<path d="M64.2045 28.6966C62.8173 27.4356 60.66 27.5344 59.3922 28.9283L38.602 51.8214L28.558 41.6104C27.2322 40.2676 25.0782 40.2471 23.7388 41.5695C22.396 42.8885 22.3755 45.0459 23.6979 46.3887L36.2707 59.1695C36.9149 59.8239 37.7874 60.1886 38.7007 60.1886C38.7212 60.1886 38.745 60.1886 38.7655 60.192C39.7062 60.1716 40.5924 59.7694 41.2228 59.0741L64.4361 33.5125C65.7007 32.115 65.5984 29.9611 64.2045 28.6966Z" fill="url(#paint1_linear_1022_427)"/>
<defs>
<linearGradient id="paint0_linear_1022_427" x1="88" y1="44" x2="-1.21655e-06" y2="44" gradientUnits="userSpaceOnUse">
<stop stop-color="#08D2B8"/>
<stop offset="1" stop-color="#1160C9"/>
</linearGradient>
<linearGradient id="paint1_linear_1022_427" x1="65.3212" y1="44.0025" x2="22.7187" y2="44.0025" gradientUnits="userSpaceOnUse">
<stop stop-color="#08D2B8"/>
<stop offset="1" stop-color="#1160C9"/>
</linearGradient>
</defs>
</svg>
