<svg width="22" height="36" viewBox="0 0 22 36" fill="none" xmlns="http://www.w3.org/2000/svg">
<path fill-rule="evenodd" clip-rule="evenodd" d="M10.6641 1.77778C7.22762 1.77778 4.44184 4.56356 4.44184 8C4.44184 11.4364 7.22762 14.2222 10.6641 14.2222C14.1005 14.2222 16.8863 11.4364 16.8863 8C16.8863 4.56356 14.1005 1.77778 10.6641 1.77778ZM2.66406 8C2.66406 3.58172 6.24579 0 10.6641 0C15.0824 0 18.6641 3.58172 18.6641 8C18.6641 12.4183 15.0824 16 10.6641 16C6.24579 16 2.66406 12.4183 2.66406 8Z" fill="#242424"/>
<path fill-rule="evenodd" clip-rule="evenodd" d="M0 22.6666C0 18.2483 3.58172 14.6666 8 14.6666H13.3333C17.7516 14.6666 21.3333 18.2483 21.3333 22.6666V35.1111C21.3333 35.6019 20.9353 36 20.4444 36H0.888889C0.397973 36 0 35.6019 0 35.1111V22.6666ZM8 16.4444C4.56356 16.4444 1.77778 19.2302 1.77778 22.6666V34.2222H19.5556V22.6666C19.5556 19.2302 16.7698 16.4444 13.3333 16.4444H8Z" fill="#242424"/>
</svg>
