<svg width="62" height="37" viewBox="0 0 62 37" fill="none" xmlns="http://www.w3.org/2000/svg">
<path fill-rule="evenodd" clip-rule="evenodd" d="M9.4676 1.57787C6.41758 1.57787 3.94506 4.05039 3.94506 7.10041C3.94506 10.1504 6.41758 12.6229 9.4676 12.6229C12.5176 12.6229 14.9901 10.1504 14.9901 7.10041C14.9901 4.05039 12.5176 1.57787 9.4676 1.57787ZM2.36719 7.10041C2.36719 3.17896 5.54615 0 9.4676 0C13.3891 0 16.568 3.17896 16.568 7.10041C16.568 11.0219 13.3891 14.2008 9.4676 14.2008C5.54615 14.2008 2.36719 11.0219 2.36719 7.10041Z" fill="#242424"/>
<path fill-rule="evenodd" clip-rule="evenodd" d="M0 20.1179C0 16.1964 3.17896 13.0175 7.10041 13.0175H11.834C15.7555 13.0175 18.9344 16.1964 18.9344 20.1179V31.1629C18.9344 31.5986 18.5811 31.9519 18.1455 31.9519H0.788934C0.353222 31.9519 0 31.5986 0 31.1629V20.1179ZM7.10041 14.5953C4.05039 14.5953 1.57787 17.0678 1.57787 20.1179V30.374H17.3566V20.1179C17.3566 17.0678 14.884 14.5953 11.834 14.5953H7.10041Z" fill="#242424"/>
<path fill-rule="evenodd" clip-rule="evenodd" d="M52.5301 1.57787C49.4801 1.57787 47.0076 4.05039 47.0076 7.10041C47.0076 10.1504 49.4801 12.6229 52.5301 12.6229C55.5801 12.6229 58.0526 10.1504 58.0526 7.10041C58.0526 4.05039 55.5801 1.57787 52.5301 1.57787ZM45.4297 7.10041C45.4297 3.17896 48.6087 0 52.5301 0C56.4516 0 59.6305 3.17896 59.6305 7.10041C59.6305 11.0219 56.4516 14.2008 52.5301 14.2008C48.6087 14.2008 45.4297 11.0219 45.4297 7.10041Z" fill="#242424"/>
<path fill-rule="evenodd" clip-rule="evenodd" d="M43.0664 20.1179C43.0664 16.1964 46.2454 13.0175 50.1668 13.0175H54.9004C58.8219 13.0175 62.0008 16.1964 62.0008 20.1179V31.1629C62.0008 31.5986 61.6475 31.9519 61.2119 31.9519H43.8553C43.4196 31.9519 43.0664 31.5986 43.0664 31.1629V20.1179ZM50.1668 14.5953C47.1168 14.5953 44.6443 17.0678 44.6443 20.1179V30.374H60.423V20.1179C60.423 17.0678 57.9504 14.5953 54.9004 14.5953H50.1668Z" fill="#242424"/>
<path fill-rule="evenodd" clip-rule="evenodd" d="M30.9992 1.78368C27.5514 1.78368 24.7563 4.57871 24.7563 8.02656C24.7563 11.4744 27.5514 14.2694 30.9992 14.2694C34.4471 14.2694 37.2421 11.4744 37.2421 8.02656C37.2421 4.57871 34.4471 1.78368 30.9992 1.78368ZM22.9727 8.02656C22.9727 3.59361 26.5663 0 30.9992 0C35.4322 0 39.0258 3.59361 39.0258 8.02656C39.0258 12.4595 35.4322 16.0531 30.9992 16.0531C26.5663 16.0531 22.9727 12.4595 22.9727 8.02656Z" fill="#242424"/>
<path fill-rule="evenodd" clip-rule="evenodd" d="M20.2969 22.742C20.2969 18.309 23.8905 14.7155 28.3234 14.7155H33.6745C38.1075 14.7155 41.701 18.309 41.701 22.742V35.2278C41.701 35.7202 41.3017 36.1196 40.8092 36.1196H21.1887C20.6962 36.1196 20.2969 35.7202 20.2969 35.2278V22.742ZM28.3234 16.4991C24.8756 16.4991 22.0806 19.2942 22.0806 22.742V34.3359H39.9173V22.742C39.9173 19.2942 37.1223 16.4991 33.6745 16.4991H28.3234Z" fill="#242424"/>
</svg>
